<svg xmlns="http://www.w3.org/2000/svg" xmlns:xlink="http://www.w3.org/1999/xlink" viewBox="0 0 500 500"><defs><clipPath id="freepik--clip-path--inject-79"><path d="M415.1,157c0-4.57-2-7.42-5.15-7.42a8.2,8.2,0,0,0-4.07,1.27c-3.53,2-6.78,6.11-8.71,10.93a.47.47,0,0,0-.06.15h0a21.28,21.28,0,0,0-1.59,7.67v16.37l19.58-11.3Z" style="fill:none"></path></clipPath></defs><g id="freepik--Floor--inject-79"><path id="freepik--floor--inject-79" d="M87.38,402.18c90.43,46.47,237,46.47,327.45,0s90.43-121.82,0-168.3-237-46.47-327.45,0S-3,355.71,87.38,402.18Z" style="fill:#f5f5f5"></path></g><g id="freepik--Plants--inject-79"><g id="freepik--plants--inject-79"><path d="M407.51,277.69c.11-6.21,6.61-22.45,13.2-30.41s16.82-13.67,24-11.08c6.67,2.41,5.79,11.19-2.45,16.88s-20.6,12.8-24.35,22.81l-7.72,12.24Z" style="fill:#C53F3F"></path><path d="M407.51,277.69c.11-6.21,6.61-22.45,13.2-30.41s16.82-13.67,24-11.08c6.67,2.41,5.79,11.19-2.45,16.88s-20.6,12.8-24.35,22.81l-7.72,12.24Z" style="opacity:0.1"></path><path d="M408.69,282.73a.45.45,0,0,0,.41-.35c4.53-21.14,22-38.08,32.32-41.71a.45.45,0,0,0,.28-.58.45.45,0,0,0-.58-.27c-10.53,3.7-28.31,20.91-32.91,42.37a.47.47,0,0,0,.35.54Z" style="fill:#fff"></path><path d="M411.61,296.36c1.06-3.47,5.43-9.16,12.41-13.8,7.72-5.13,17.42-7.38,19.72-11.45,2.76-4.87-1.31-9.6-9.16-8.76s-21.83,11.29-24.31,27.36Z" style="fill:#C53F3F"></path><path d="M410.16,292.67a.47.47,0,0,0,.4-.29c6.82-18.05,20.79-24.19,27.22-24.91a.45.45,0,0,0,.4-.5.44.44,0,0,0-.5-.4c-7.11.79-21,7.06-28,25.49a.45.45,0,0,0,.26.58A.32.32,0,0,0,410.16,292.67Z" style="fill:#fff"></path></g><g id="freepik--plants--inject-79"><path d="M104.15,336.43l7.57-4.33s3.63-20,.92-37.2c-3.82-24.18-20.28-32.52-26.26-30.11s-7.39,9.56,3.41,23.53C96.16,296.57,104.36,314,104.15,336.43Z" style="fill:#C53F3F"></path><g style="opacity:0.1"><path d="M104.15,336.43l7.57-4.33s3.63-20,.92-37.2c-3.82-24.18-20.28-32.52-26.26-30.11s-7.39,9.56,3.41,23.53C96.16,296.57,104.36,314,104.15,336.43Z"></path></g><path d="M106.89,326.83h-.07a.53.53,0,0,1-.46-.61c3.13-22.63-6-47.43-16.2-57.43a.53.53,0,0,1,0-.76.54.54,0,0,1,.76,0c10.42,10.18,19.69,35.38,16.52,58.35A.55.55,0,0,1,106.89,326.83Z" style="fill:#fff"></path><path d="M83.15,348.56c-1.19.69-3.66-.81-4.6-1.45a11.39,11.39,0,0,1-3.8-4.35,10.71,10.71,0,0,1-1-6.43,24.86,24.86,0,0,1,.81-3.41l1-3.32a8.34,8.34,0,0,0,.48-3.34c-.29-2.27-2.3-3.86-4.13-5.23-2-1.52-4.13-3.52-4.12-6.25a9.63,9.63,0,0,1,2.4-5.71c1.31-1.65,2.86-3.11,4-4.86A6.69,6.69,0,0,0,75.61,300a6.87,6.87,0,0,0-.92-2.65,36.66,36.66,0,0,1-2.9-5.32c-.67-1.91-.57-4.28.92-5.65a6.26,6.26,0,0,1,4.7-1.17,10.81,10.81,0,0,1,4.36,1.54c4.34,2.41,6.81,7.54,11.41,9.4a47.14,47.14,0,0,0,5.57,1.36,6.88,6.88,0,0,1,4.59,3.14c1.69,3.37-1.45,7.53-.26,11.11,1,3.17,4.13,4.38,5.86,7.23a6.85,6.85,0,0,1,.81,4.15,20,20,0,0,1-1.75,7,50.28,50.28,0,0,1-3.85,6.31C104.08,336.5,83.33,348.46,83.15,348.56Z" style="fill:#C53F3F"></path><path d="M95.44,342h0a.54.54,0,0,1-.52-.56c.89-21.42-9.21-45.08-16.55-51.95a.55.55,0,0,1,0-.76.54.54,0,0,1,.76,0c7.49,7,17.79,31.06,16.89,52.79A.54.54,0,0,1,95.44,342Z" style="fill:#fff"></path><path d="M92.23,316.7l-.16,0a72.23,72.23,0,0,0-15.55-2.51.54.54,0,0,1-.52-.56.53.53,0,0,1,.56-.52,74.35,74.35,0,0,1,15.83,2.56.54.54,0,0,1-.16,1.05Z" style="fill:#fff"></path></g></g><g id="freepik--Letter--inject-79"><g id="freepik--letter--inject-79"><path d="M121.38,132.44a6.81,6.81,0,0,1,3.09-5.36L282.7,35.73a6.82,6.82,0,0,1,6.19,0l3.48,2a6.81,6.81,0,0,1,3.09,5.35V164.38a6.89,6.89,0,0,1-3.09,5.36L134.14,261.09a6.86,6.86,0,0,1-6.18,0l-3.49-2a6.89,6.89,0,0,1-3.09-5.36Z" style="fill:#C53F3F"></path><path d="M122.28,129.39l8.78,5.06,163.5-94.4a6.4,6.4,0,0,0-2.18-2.31l-3.5-2a6.8,6.8,0,0,0-6.18,0L124.48,127.08A6.2,6.2,0,0,0,122.28,129.39Z" style="fill:#fff;opacity:0.4"></path><path d="M121.38,132.43V253.71a6.82,6.82,0,0,0,3.1,5.36l3.48,2a4.39,4.39,0,0,0,.85.38,6.94,6.94,0,0,0,1.27.29,7.4,7.4,0,0,0,2.44-.09,5.25,5.25,0,0,0,.6-.16,2,2,0,0,0,.37-.14,1.88,1.88,0,0,1-1.48,0,2.16,2.16,0,0,1-.95-2V138a2.71,2.71,0,0,1,1.61-2.63l-1.61-.94-8.78-5.06A6.38,6.38,0,0,0,121.38,132.43Z" style="opacity:0.1"></path><path d="M131.06,134.45l73.28,27.38a11.91,11.91,0,0,0,14.13-4.66l11.77-18,64.9-99.44L232.58,139.82l62.88,24.61a6.44,6.44,0,0,1-1,3.09L232.41,140.1,218.73,162a11.9,11.9,0,0,1-14.91,4.58l-9.73-4.3L132,261.34a2.16,2.16,0,0,1-.95-2v-2l62.73-95.14Z" style="opacity:0.2"></path></g><path d="M149.19,106.13,138.37,99.9h0l-.1-.06v0c-4.8-2.71-11.38-2.3-18.67,1.9-14.67,8.47-26.56,29.07-26.56,46,0,8.45,3,14.4,7.75,17.18h0l9.84,5.61,2.35-3.93a27.14,27.14,0,0,0,7.62-3c14.67-8.47,26.56-29.07,26.56-46a28.22,28.22,0,0,0-.83-6.78Z" style="fill:#37474f"></path><path d="M129.86,107.65c-14.68,8.47-26.57,29.07-26.57,46s11.89,23.81,26.56,15.34,26.57-29.08,26.57-46S144.53,99.17,129.86,107.65Z" style="fill:#455a64"></path><path d="M121.6,140.34a.82.82,0,0,1-.21-.75,2.25,2.25,0,0,1,.4-1L130,126.4c.21-.29.41-.58.63-.86a2.33,2.33,0,0,1,.69-.65l3-1.7a.63.63,0,0,1,1,.59v28.14a2.07,2.07,0,0,1-.31,1,2,2,0,0,1-.71.76l-3.06,1.76a.69.69,0,0,1-.72.07.71.71,0,0,1-.3-.66V133.34l-5.35,7.93a1.76,1.76,0,0,1-.74.67.67.67,0,0,1-.7-.06Z" style="fill:#fafafa"></path></g></svg>